<?xml version="1.0" encoding="UTF-8" standalone="no"?>
<svg
   xmlns:dc="http://purl.org/dc/elements/1.1/"
   xmlns:cc="http://creativecommons.org/ns#"
   xmlns:rdf="http://www.w3.org/1999/02/22-rdf-syntax-ns#"
   xmlns:svg="http://www.w3.org/2000/svg"
   xmlns="http://www.w3.org/2000/svg"
   xmlns:sodipodi="http://sodipodi.sourceforge.net/DTD/sodipodi-0.dtd"
   xmlns:inkscape="http://www.inkscape.org/namespaces/inkscape"
   id="svg8"
   version="1.1"
   viewBox="0 0 297 210"
   height="210mm"
   width="297mm"
   sodipodi:docname="FRS-logo2.svg"
   inkscape:version="0.92.2 (5c3e80d, 2017-08-06)">
  <sodipodi:namedview
     pagecolor="#ffffff"
     bordercolor="#666666"
     borderopacity="1"
     objecttolerance="10"
     gridtolerance="10"
     guidetolerance="10"
     inkscape:pageopacity="0"
     inkscape:pageshadow="2"
     inkscape:window-width="2498"
     inkscape:window-height="1417"
     id="namedview79"
     showgrid="false"
     inkscape:zoom="0.27794613"
     inkscape:cx="418.62253"
     inkscape:cy="1114.646"
     inkscape:window-x="54"
     inkscape:window-y="-8"
     inkscape:window-maximized="1"
     inkscape:current-layer="svg8" />
  <defs
     id="defs2" />
  <metadata
     id="metadata5">
    <rdf:RDF>
      <cc:Work
         rdf:about="">
        <dc:format>image/svg+xml</dc:format>
        <dc:type
           rdf:resource="http://purl.org/dc/dcmitype/StillImage" />
        <dc:title></dc:title>
      </cc:Work>
    </rdf:RDF>
  </metadata>
  <g
     id="layer1"
     transform="matrix(0.25,0,0,0.25,124.4352,68.787869)">
    <g
       id="g3707"
       transform="matrix(0.35277777,0,0,-0.35277777,-419.69622,489.05927)">
      <g
         id="g3709"
         transform="translate(1911.52,984.95)">
        <path
           d="m 0,0 -11.34,-28.51 -89.32,-224.64 h -438.6 l 199.65,-502.34 -206.41,0.03 -159.55,402.37 h -0.01 l -27.15,68.48 -51.05,128.88 -61.67,155.69 531.87,0.03 L -18.83,0 Z"
           style="fill:#ffffff;fill-opacity:1;fill-rule:nonzero;stroke:none"
           id="path3711"
           inkscape:connector-curvature="0" />
      </g>
      <g
         id="g3713"
         transform="translate(2057.54,1084.53)">
        <path
           d="M 0,0 -33.72,-85.08 0.02,0 Z"
           style="fill:#000000;fill-opacity:1;fill-rule:nonzero;stroke:none"
           id="path3715"
           inkscape:connector-curvature="0" />
      </g>
      <g
         id="g3717"
         transform="translate(2134.6201,1545.99)">
        <path
           d="m 0,0 -183.5,-461.46 -193.78,-0.08 -12.81,-0.01 82.62,208.44 -883.18,-0.06 -100.31,253.13 z"
           style="fill:#ffffff;fill-opacity:1;fill-rule:nonzero;stroke:none"
           id="path3719"
           inkscape:connector-curvature="0" />
      </g>
      <g
         id="g3721"
         transform="translate(1597.9401,984.9402)">
        <path
           d="M 0,0 -0.01,-0.04 294.75,0.01 Z"
           style="fill:#000000;fill-opacity:1;fill-rule:nonzero;stroke:none"
           id="path3723"
           inkscape:connector-curvature="0" />
      </g>
      <g
         id="g3725"
         transform="translate(810.99,731.48)">
        <path
           d="M 0,0 199.08,-502.32 H -6.78 L -528.59,814.16 H -74.35 L 25.97,561.05 H -222.41 L -100.34,253.11 H 148.05 L 248.38,-0.01 Z"
           style="fill:#cd853f;fill-opacity:1;fill-rule:nonzero;stroke:none"
           id="path3727"
           inkscape:connector-curvature="0" />
      </g>
      <g
         id="g3729"
         transform="translate(1127.74,829.22)">
        <path
           d="m 0,0 51.05,-128.88 27.15,-68.48 h 0.01 z"
           style="fill:#000000;fill-opacity:1;fill-rule:nonzero;stroke:none"
           id="path3731"
           inkscape:connector-curvature="0" />
      </g>
      <g
         id="g3733"
         transform="translate(2347.1899,1292.51)">
        <path
           d="m 0,0 -123.42,-307.9 h 250.83 l -299.43,-755.43 -456.46,-0.03 77.22,194.41 h 250.43 l 122.06,307.94 -250.85,-0.02 48.67,122.78 220.52,556.27 53.56,135.1 456.66,0.03 L 249.46,0.03 Z"
           style="fill:#ec1e24;fill-opacity:1;fill-rule:nonzero;stroke:none"
           id="path3735"
           inkscape:connector-curvature="0" />
      </g>
      <g
         id="g3737"
         transform="translate(1771.1499,631.95)">
        <path
           d="m 0,0 -0.04,-0.09 h 92.05 z m 39.7,99.85 h 0.01 l 89.32,224.64 z"
           style="fill:#000000;fill-opacity:1;fill-rule:nonzero;stroke:none"
           id="path3739"
           inkscape:connector-curvature="0" />
      </g>
      <g
         id="g3741"
         transform="translate(1863.1602,631.86)">
        <path
           d="M 0,0 14.88,-0.01 14.89,0 Z m 103.08,222.4 51.84,130.71 5.74,14.48 33.72,85.08 55.57,140.18 73.65,185.82 z"
           style="fill:#000000;fill-opacity:1;fill-rule:nonzero;stroke:none"
           id="path3743"
           inkscape:connector-curvature="0" />
      </g>
      <g
         id="g3745"
         transform="translate(2596.6499,1292.54)">
        <path
           d="m 0,0 -249.46,-0.03 -123.42,-307.9 h 250.83 l -299.43,-755.43 -456.46,-0.03 77.22,194.41 h 250.43 l 122.06,307.94 -250.85,-0.02 48.67,122.78 220.52,556.27 53.56,135.1 456.66,0.03 z m -1077.75,-660.36 252.25,-0.23 92.01,-0.09 h 14.89 l 143.73,0.01 -43.09,-108.7 h -250.37 l -82.93,-208.76 z m -153.4,-402.69 -159.55,402.37 h -0.01 l -27.15,68.48 -51.05,128.88 -61.67,155.69 531.87,0.03 294.75,0.01 h 18.83 l -11.34,-28.51 -89.32,-224.64 h -438.6 l 199.65,-502.34 z m -554.51,501.99 199.08,-502.32 h -205.86 L -2314.25,253.1 h 454.24 l 100.32,-253.11 h -248.38 L -1886,-307.95 h 248.39 l 100.33,-253.12 z m 869.52,461.77 -43.14,-108.84 -610.69,-0.17 h -0.77 l -247.6,-0.03 -43.09,108.71 246.22,0.21 h 2.03 z m 454.11,352.74 -183.5,-461.46 -193.78,-0.08 -12.81,-0.01 82.62,208.44 -883.18,-0.06 -100.31,253.13 z m -1998.86,253.3 v -154.01 -0.02 l 600.78,-1515.71 h 420.16 l -199.08,502.31 h 141.24 l 198.98,-501.97 421.04,-0.12 523.95,-0.2 378.4,954.65 h -250.22 l 43.57,108.68 249.75,0.04 179.29,452.34 v 154.01 z"
           style="fill:#000000;fill-opacity:1;fill-rule:nonzero;stroke:none"
           id="path3747"
           inkscape:connector-curvature="0" />
      </g>
      <g
         id="g3749"
         transform="translate(2909.6201,1865.29)">
        <path
           d="m 0,0 h -66 -2707.86 -66 v -66 -154.01 -12.603 l 4.644,-11.736 600.78,-1515.71 16.521,-41.681 h 44.835 420.16 97.152 l -0.139,0.353 44.108,-0.013 421.04,-0.12 523.944,-0.2 44.853,-0.017 16.528,41.697 378.4,954.65 26.576,67.047 h 0.006 l 16.518,41.674 179.29,452.34 L 0,-232.613 V -220.01 -66 Z m -1264.23,-1550.88 82.93,208.76 h 250.37 l 43.09,108.7 -143.73,-0.01 h -14.89 l -92.01,0.09 -252.25,0.23 126.49,-317.77 m -867.08,769.8 247.6,0.03 h 0.77 l 610.69,0.17 43.14,108.84 -697.04,-0.12 h -2.03 l -246.22,-0.21 43.09,-108.71 M -66,-66 v -154.01 l -179.29,-452.34 -249.75,-0.04 -43.57,-108.68 h 250.22 l -378.4,-954.65 -523.95,0.2 -421.04,0.12 -198.98,501.97 H -1952 l 199.08,-502.31 h -420.16 l -600.78,1515.71 v 0.02 V -66 Z"
           style="fill:#ffffff;fill-opacity:1;fill-rule:nonzero;stroke:none"
           id="path3751"
           inkscape:connector-curvature="0" />
      </g>
      <g
         id="g3753"
         transform="translate(334.393,1694.8115)">
        <path
           d="M 0,0 -3.523,-11.556 H 59.612 L 52.565,-34.104 H -10.57 L -20.998,-68.349 H -51.579 L -27.762,9.16 -36.641,22.689 H 70.04 L 63.135,0 Z"
           style="fill:#ffffff;fill-opacity:1;fill-rule:nonzero;stroke:none"
           id="path3755"
           inkscape:connector-curvature="0" />
      </g>
      <g
         id="g3757"
         transform="translate(446.0053,1694.8115)">
        <path
           d="M 0,0 -3.523,-11.556 H 59.752 L 52.707,-34.104 H -10.57 l -3.523,-11.697 H 49.042 L 42.278,-68.349 H -51.579 L -27.762,9.16 -36.641,22.689 H 70.181 L 63.135,0 Z"
           style="fill:#ffffff;fill-opacity:1;fill-rule:nonzero;stroke:none"
           id="path3759"
           inkscape:connector-curvature="0" />
      </g>
      <g
         id="g3761"
         transform="translate(557.7596,1694.8115)">
        <path
           d="m 0,0 -3.523,-11.556 h 63.275 l -7.045,-22.548 h -63.276 l -3.524,-11.697 H 49.042 L 42.278,-68.349 H -51.579 L -27.763,9.16 -36.641,22.689 H 70.181 L 63.135,0 Z"
           style="fill:#ffffff;fill-opacity:1;fill-rule:nonzero;stroke:none"
           id="path3763"
           inkscape:connector-curvature="0" />
      </g>
      <g
         id="g3765"
         transform="translate(702.2089,1694.8115)">
        <path
           d="M 0,0 H -32.695 L -46.788,-45.801 H -30.44 L -9.019,-28.89 Z M -84.274,-68.349 -60.458,9.16 -69.335,22.689 H 37.486 l -19.447,-63.558 -36.641,-27.48 z"
           style="fill:#ffffff;fill-opacity:1;fill-rule:nonzero;stroke:none"
           id="path3767"
           inkscape:connector-curvature="0" />
      </g>
      <g
         id="g3769"
         transform="translate(781.2684,1694.8115)">
        <path
           d="m 0,0 -3.523,-11.556 h 63.275 l -7.045,-22.548 h -63.276 l -3.524,-11.697 H 49.042 L 42.278,-68.349 H -51.579 L -27.763,9.16 -36.641,22.689 H 70.181 L 63.135,0 Z"
           style="fill:#ffffff;fill-opacity:1;fill-rule:nonzero;stroke:none"
           id="path3771"
           inkscape:connector-curvature="0" />
      </g>
      <g
         id="g3773"
         transform="translate(893.0228,1694.8115)">
        <path
           d="M 0,0 -4.51,-14.233 H 28.185 L 32.695,0 Z m 70.181,22.689 -18.32,-59.471 h -16.77 l 7.046,-31.567 H 11.415 l -7.469,31.567 h -15.22 l -9.724,-31.567 h -30.581 l 23.816,77.509 -8.878,13.529 z"
           style="fill:#ffffff;fill-opacity:1;fill-rule:nonzero;stroke:none"
           id="path3775"
           inkscape:connector-curvature="0" />
      </g>
      <g
         id="g3777"
         transform="translate(1068.6151,1694.8115)">
        <path
           d="M 0,0 -4.51,-14.233 H 28.185 L 32.695,0 Z m 70.181,22.689 -18.32,-59.471 h -16.77 l 7.046,-31.567 H 11.415 l -7.469,31.567 h -15.22 l -9.724,-31.567 h -30.581 l 23.816,77.509 -8.878,13.529 z"
           style="fill:#ffffff;fill-opacity:1;fill-rule:nonzero;stroke:none"
           id="path3779"
           inkscape:connector-curvature="0" />
      </g>
      <g
         id="g3781"
         transform="translate(1180.2274,1694.8115)">
        <path
           d="M 0,0 -5.073,-16.629 H 27.622 L 32.695,0 Z M 70.181,22.689 42.278,-68.349 H 11.697 l 8.878,29.172 H -12.12 l -8.878,-29.172 h -30.581 l 23.816,77.509 -8.878,13.529 z"
           style="fill:#ffffff;fill-opacity:1;fill-rule:nonzero;stroke:none"
           id="path3783"
           inkscape:connector-curvature="0" />
      </g>
      <g
         id="g3785"
         transform="translate(1333.9764,1626.4624)">
        <path
           d="m 0,0 h -93.716 l 23.817,77.509 -8.878,13.529 H 27.903 L 20.998,68.349 H -42.137 L -56.229,22.548 h 32.554 l 3.523,11.697 h -15.22 l 6.905,22.548 h 45.942 z"
           style="fill:#ffffff;fill-opacity:1;fill-rule:nonzero;stroke:none"
           id="path3787"
           inkscape:connector-curvature="0" />
      </g>
      <g
         id="g3789"
         transform="translate(1375.6893,1703.9717)">
        <path
           d="M 0,0 -8.878,13.529 H 34.245 L 54.82,-27.199 67.363,13.529 H 97.944 L 70.041,-77.509 H 39.882 L 19.307,-36.782 6.765,-77.509 h -30.581 z"
           style="fill:#ffffff;fill-opacity:1;fill-rule:nonzero;stroke:none"
           id="path3791"
           inkscape:connector-curvature="0" />
      </g>
      <g
         id="g3793"
         transform="translate(1515.2064,1694.8115)">
        <path
           d="M 0,0 -5.073,-16.629 H 27.622 L 32.695,0 Z M 70.181,22.689 42.278,-68.349 H 11.697 l 8.878,29.172 H -12.12 l -8.878,-29.172 h -30.581 l 23.816,77.509 -8.878,13.529 z"
           style="fill:#ffffff;fill-opacity:1;fill-rule:nonzero;stroke:none"
           id="path3795"
           inkscape:connector-curvature="0" />
      </g>
      <g
         id="g3797"
         transform="translate(1626.8187,1694.8115)">
        <path
           d="M 0,0 -4.51,-14.233 H 28.185 L 32.695,0 Z m 70.181,22.689 -18.32,-59.471 h -16.77 l 7.046,-31.567 H 11.415 l -7.469,31.567 h -15.22 l -9.724,-31.567 h -30.581 l 23.816,77.509 -8.878,13.529 z"
           style="fill:#ffffff;fill-opacity:1;fill-rule:nonzero;stroke:none"
           id="path3799"
           inkscape:connector-curvature="0" />
      </g>
      <g
         id="g3801"
         transform="translate(1844.5477,1626.4624)">
        <path
           d="m 0,0 h -93.716 l 6.905,22.548 h 63.136 l 3.523,11.697 h -63.135 l 13.388,43.264 -8.878,13.529 H 27.903 L 20.998,68.349 H -42.137 L -45.66,56.793 h 63.135 z"
           style="fill:#ffffff;fill-opacity:1;fill-rule:nonzero;stroke:none"
           id="path3803"
           inkscape:connector-curvature="0" />
      </g>
      <g
         id="g3805"
         transform="translate(1886.2606,1703.9717)">
        <path
           d="M 0,0 -8.878,13.529 H 34.668 L 6.765,-77.509 h -30.581 z"
           style="fill:#ffffff;fill-opacity:1;fill-rule:nonzero;stroke:none"
           id="path3807"
           inkscape:connector-curvature="0" />
      </g>
      <g
         id="g3809"
         transform="translate(1934.7386,1703.9717)">
        <path
           d="M 0,0 -8.878,13.529 H 135.994 L 108.09,-77.509 H 77.51 l 21.138,68.49 H 78.496 L 57.357,-77.509 H 26.776 l 21.139,68.49 H 27.763 L 6.765,-77.509 h -30.581 z"
           style="fill:#ffffff;fill-opacity:1;fill-rule:nonzero;stroke:none"
           id="path3811"
           inkscape:connector-curvature="0" />
      </g>
      <g
         id="g3813"
         transform="translate(2084.5415,1703.9717)">
        <path
           d="M 0,0 -8.878,13.529 H 34.668 L 13.67,-54.961 h 32.695 l 20.998,68.49 H 97.944 L 70.041,-77.509 h -93.857 z"
           style="fill:#ffffff;fill-opacity:1;fill-rule:nonzero;stroke:none"
           id="path3815"
           inkscape:connector-curvature="0" />
      </g>
      <g
         id="g3817"
         transform="translate(2230.9639,1717.5005)">
        <path
           d="M 0,0 -20.998,-68.49 H 37.346 L 30.44,-91.038 H -58.484 L -34.668,-13.529 -43.546,0 Z"
           style="fill:#ffffff;fill-opacity:1;fill-rule:nonzero;stroke:none"
           id="path3819"
           inkscape:connector-curvature="0" />
      </g>
      <g
         id="g3821"
         transform="translate(2326.9341,1694.8115)">
        <path
           d="M 0,0 -5.073,-16.629 H 27.622 L 32.695,0 Z M 70.181,22.689 42.278,-68.349 H 11.697 l 8.878,29.172 H -12.12 l -8.878,-29.172 h -30.581 l 23.816,77.509 -8.878,13.529 z"
           style="fill:#ffffff;fill-opacity:1;fill-rule:nonzero;stroke:none"
           id="path3823"
           inkscape:connector-curvature="0" />
      </g>
      <g
         id="g3825"
         transform="translate(2415.998,1694.8115)">
        <path
           d="M 0,0 -14.092,22.689 H 87.938 L 80.892,0 H 50.875 L 29.876,-68.349 H -0.563 L 20.293,0 Z"
           style="fill:#ffffff;fill-opacity:1;fill-rule:nonzero;stroke:none"
           id="path3827"
           inkscape:connector-curvature="0" />
      </g>
      <g
         id="g3829"
         transform="translate(2531.2749,1649.0107)">
        <path
           d="M 0,0 H 32.695 L 46.788,45.801 H 14.093 Z M -22.548,68.49 H 84.274 L 56.371,-22.548 h -93.857 l 23.816,77.509 z"
           style="fill:#ffffff;fill-opacity:1;fill-rule:nonzero;stroke:none"
           id="path3831"
           inkscape:connector-curvature="0" />
      </g>
      <g
         id="g3833"
         transform="translate(2657.1221,1694.8115)">
        <path
           d="M 0,0 -4.51,-14.233 H 28.185 L 32.695,0 Z m 70.181,22.689 -18.32,-59.471 h -16.77 l 7.046,-31.567 H 11.415 l -7.469,31.567 h -15.22 l -9.724,-31.567 h -30.581 l 23.816,77.509 -8.878,13.529 z"
           style="fill:#ffffff;fill-opacity:1;fill-rule:nonzero;stroke:none"
           id="path3835"
           inkscape:connector-curvature="0" />
      </g>
    </g>
  </g>
</svg>
